<?xml version="1.0" encoding="UTF-8"?>
<svg id="Designed_by_Freepik" data-name="Designed by Freepik" xmlns="http://www.w3.org/2000/svg" viewBox="0 0 500 500">
  <defs>
    <style>
      .cls-1 {
        fill: #cfb235;
      }

      .cls-2 {
        fill: #46178f;
      }

      .cls-3 {
        fill: #8e8e8e;
      }

      .cls-4 {
        fill: #26890c;
      }

      .cls-5 {
        fill: #1f282e;
      }

      .cls-6 {
        fill: #fbbf2f;
      }

      .cls-7 {
        fill: #5a6a72;
      }

      .cls-8 {
        fill: #ffa602;
      }

      .cls-9 {
        fill: #e31a3d;
      }

      .cls-10 {
        fill: #1386ec;
      }

      .cls-11 {
        fill: #fefefe;
      }

      .cls-12 {
        fill: #5e5e5e;
      }

      .cls-13 {
        fill: #36464f;
      }

      .cls-14 {
        fill: #465a65;
      }

      .cls-15 {
        fill: #263137;
      }

      .cls-16 {
        fill: #eace4f;
      }

      .cls-17 {
        fill: #0b98ac;
      }
    </style>
  </defs>
  <polygon class="cls-11" points="48.61 411.41 48.61 410.91 49.11 410.91 48.61 411.41"/>
  <g>
    <path class="cls-13" d="M427.26,120.88c27.33,36.86,40.68,79.17,42.18,124.81-1.32-.24-.84.67-.87,1.5-.07,1.73-.06,3.53,0,5.26.03.84-.44,1.75.87,1.5-.79,39.29-12.09,77.21-32.18,110.02-1.42.11-.74-.24-.34-.99,1.15-2.16,1.91-3.45,2.98-5.63,38.71-78.92,38.23-163.52-14.82-236.04l2.17-.43Z"/>
    <path class="cls-13" d="M63.72,138.27c-33.32,55.83-40.19,123.22-18.38,184.72,3.36,9.47,7.79,20.34,11.88,29.43.37.82.97,1.23-.46,1.11-36.72-68.15-34.76-148.76,4.78-215.26h2.17Z"/>
    <path class="cls-7" d="M469.44,245.69c.09,2.73.05,5.53,0,8.26-1.31.24-.84-.67-.87-1.5-.06-1.73-.07-3.53,0-5.26.03-.84-.45-1.74.87-1.5Z"/>
    <path class="cls-13" d="M422.48,114.79c-.61-.21-.88-.66-.87-1.3.45.5.61,1,.87,1.3Z"/>
    <path class="cls-13" d="M426.83,120.44c-.61-.21-.88-.66-.87-1.3.37.48.59.93.87,1.3Z"/>
    <path class="cls-13" d="M425.52,118.7c-.61-.21-.88-.66-.87-1.3.39.49.6.96.87,1.3Z"/>
    <path class="cls-13" d="M424.22,116.96c-.61-.21-.88-.66-.87-1.3.39.48.6.97.87,1.3Z"/>
    <path class="cls-13" d="M421.17,113.05c-.46-.48-1.39-.64-1.3-1.74.47.56.98,1.07,1.3,1.74Z"/>
    <path class="cls-13" d="M419.43,110.87c-.67-.26-.95-.74-1.3-1.3.72.21.91.86,1.3,1.3Z"/>
    <path class="cls-16" d="M454.22,316.14v-.43s.1-.02,0,.43Z"/>
    <g>
      <path class="cls-13" d="M259.41,30.86h-19.13c6.23-.17,12.9-.16,19.13,0Z"/>
      <path class="cls-15" d="M269.84,33.9c-13.3-.42-26.72.16-40.03.19l-2.15,17.64c-13.32,1.35-26.41,4.16-39.14,8.26-39.89,12.85-74.37,38.18-99.15,71.75-.24.32-.31.7-.43.87-24.91,34.18-37.84,72.58-38.27,115.24,0,.72,0,1.45,0,2.17,0,.58,0,1.16,0,1.74.19,19.59,2.75,36.09,8.26,54.79,6.68,22.64,16.15,41.82,30.01,60.88,24.62,33.87,59.55,59.45,99.58,72.19.73.23,1.55.24,2.17.43,40.34,12.3,78.41,12.32,118.72,0,.63-.19,1.44-.2,2.17-.43,40.66-12.96,74.69-38.35,99.58-72.62,24.47-33.68,38.03-73.19,38.27-115.24v-1.3c.45-42.41-13.41-83.71-38.27-117.85-25.48-35-58.45-58.76-99.58-72.19-12.65-4.13-24.95-7.25-38.27-8.7-.28-.03-.58.03-.87,0l-2.17-17.83c58.62,2.16,120.8,40.92,154.81,87.41,53.05,72.52,53.53,157.12,14.82,236.04-1.07,2.18-1.83,3.47-2.98,5.63-.4.75-1.09,1.1.34.99-16.34,26.7-37.81,49.76-63.79,67.33-1.94,1.31-3.97,2.94-6.23,3.56.03-.03-.14-.47.28-.9,1.05-1.04,4.37-2.61,5.8-3.46l-.22-.87c-5.68,2.77-10.9,6.54-16.44,9.65-66.2,37.11-144.33,37.01-211.06,1.3-2.78-1.49-10.8-7.04-13.01-7.44-.79-.14-1.74-.39-1.48.84-32.21-20.74-56.12-46.6-74.36-80.45,1.43.12.83-.29.46-1.11-4.1-9.09-8.53-19.96-11.88-29.43-21.81-61.51-14.94-128.89,18.38-184.72,40.44-67.76,115.75-108.88,195.01-105.22,3.68.17,7.51-.23,11.11.85ZM374.64,428.77h-.87v.87h.87v-.87Z"/>
      <path class="cls-14" d="M240.27,30.86h19.13c27.65.71,56.37,7.76,81.47,19.2,3.75,1.71,15.21,6.86,17.83,9.04.42.35.13,1.01.55,1.36.64.55,4.42,1.99,5.56,2.63,15.63,8.75,43.63,31.15,53.3,46.48.36.57.64,1.04,1.3,1.3.14.15.3.28.43.43-.09,1.1.84,1.26,1.3,1.74.14.15.3.28.43.43,0,.65.25,1.09.87,1.3.21.24.54.47.87.87,0,.64.26,1.09.87,1.3.13.16.31.28.43.43,0,.64.26,1.09.87,1.3.12.16.31.27.43.43,0,.64.26,1.09.87,1.3.12.16.32.27.43.43l-2.17.43c-34.01-46.49-96.19-85.25-154.81-87.41-.14,0-.29,0-.43,0-3.6-1.08-7.43-.68-11.11-.85-79.26-3.66-154.58,37.47-195.01,105.22h-2.17c37.44-62.98,104.41-105.42,178.73-107.41Z"/>
      <path class="cls-5" d="M131.13,433.99c-.26-1.23.69-.98,1.48-.84,2.21.4,10.23,5.95,13.01,7.44,66.73,35.71,144.85,35.81,211.06-1.3,5.54-3.11,10.76-6.88,16.44-9.65l.22.87c-1.43.85-4.75,2.42-5.8,3.46-.43.42-.25.86-.28.9-2.18,2.14-11.25,6.87-14.35,8.7-.29-.58-1.73.06-2.16.23-3.01,1.2-4.41,2.18-6.54,4.12-.34.31-.9.68-1.3.87-59.58,27.46-119.91,26.31-180.47,2.61-.48-.19-1.14-1.19-2.17-.87l-.51-1.23c-.47-.29-1.29.05-1.67-.08.1-.66-.98-1.58-1.43-1.86-2.16-1.34-6.01-3.12-8.41-4.18-.56-.24-1.49-.94-1.9-.06-5.24-2.9-10.11-5.84-15.22-9.13Z"/>
      <path class="cls-15" d="M146.35,443.12c.41-.89,1.34-.19,1.9.06,2.4,1.05,6.25,2.84,8.41,4.18.45.28,1.53,1.2,1.43,1.86-4.22-1.41-7.93-3.98-11.74-6.09Z"/>
      <path class="cls-15" d="M352.9,443.55c-2.02,1.19-5.63,3.82-7.83,4.35-.25.06-.59-.04-.87,0,2.13-1.94,3.52-2.92,6.54-4.12.43-.17,1.87-.81,2.16-.23Z"/>
      <path class="cls-5" d="M269.84,33.9c.14,0,.29,0,.43,0l2.17,17.83c-1.98-.2-3.96-.74-6.09-.43.5-1.2,3.48-7.61,3.48-8.05v-8.91h-40.01v8.05c0,.63,1.13,1.93,1.3,2.39.73,1.96,1.42,4.73,2.17,6.52-1.98-.31-3.81.25-5.65.43l2.15-17.64c13.31-.03,26.73-.61,40.03-.19Z"/>
      <rect class="cls-5" x="373.78" y="428.77" width=".87" height=".87"/>
      <path class="cls-13" d="M224.62,239.16v.87s1.3,0,1.3,0c-1.38,3.64-2.1,9.35-1.69,13.21.19,1.8,2.49,6.07-.05,6.36-.1-.26-.66-.6-.87-.87-.44-2.3-1.15-4.6-1.3-6.96-.04-.57,0-1.16,0-1.74,0-.72-.06-1.46,0-2.17.31-3.89,1.29-5.52,2.61-8.7Z"/>
      <path class="cls-15" d="M273.76,239.16c.88,2.09,2.07,7.48,2.19,9.77.18,3.5-.72,6.65-1.36,10.04l1.35,1.07c-.79,2.05-1.76,4.31-3.04,6.09-2.84,3.92-7.71,7.69-12.18,9.57-.7.3-1.45.65-2.17.87-5.45,1.68-11.96,1.85-17.39,0-4.94-1.68-10.4-5.83-13.48-10-1.98-2.68-2.32-4.06-3.48-6.96,2.54-.29.25-4.56.05-6.36-.42-3.86.31-9.57,1.69-13.21,7.76-20.52,39.32-21.13,47.83-.87ZM238.54,246.55c-2.98,13.32,12.17,20.76,20.68,11.33,2.73-3.03,3.09-6.58,2.36-10.46-2.39-12.78-20.44-12.56-23.05-.87Z"/>
      <path class="cls-13" d="M278.11,249.16c0,.14,0,.29,0,.43s0,.29,0,.43c-.06,3.4-.96,6.85-2.17,10l-1.35-1.07c.64-3.39,1.54-6.54,1.36-10.04-.12-2.28-1.31-7.67-2.19-9.77l1.74-.43c1.29,3.2,2.5,6.96,2.61,10.44Z"/>
      <path class="cls-14" d="M255.06,222.2c1.09.19,2.79.94,3.91,1.3.55.18,1.23.23,1.74.43,3.31,1.35,10.13,6.29,12.18,9.13.65.9,2.11,4.42,2.61,5.65l-1.74.43c-8.51-20.27-40.07-19.65-47.83.87h-1.31s0-.87,0-.87c.42-1.01.71-2.85,1.3-3.91.23-.42,1.5-1.02,1.3-2.17.71-.22.91-.86,1.3-1.3,2.76-3.13,7.01-6.21,10.87-7.83.55-.23,1.6-.82,1.74-.87.41-.13,1.54-.3,2.17-.43,3.58-.78,8.14-1.05,11.74-.43Z"/>
      <path class="cls-1" d="M240.71,246.55c-4.88,16.7,22.17,17.66,19.13.87h1.74c.72,3.87.37,7.43-2.36,10.46-8.51,9.43-23.66,2-20.68-11.33h2.17Z"/>
      <path class="cls-16" d="M261.58,247.42h-1.74c-.29-1.58-2.79-4.69-4.13-5.65-5.12-3.66-13.2-1.37-15,4.78h-2.17c2.61-11.69,20.66-11.91,23.05.87Z"/>
      <path class="cls-6" d="M259.84,247.42c3.04,16.79-24.01,15.83-19.13-.87,1.8-6.15,9.88-8.44,15-4.78,1.34.96,3.85,4.07,4.13,5.65Z"/>
      <path class="cls-9" d="M411.17,132.62c-.8,1.01-2.1,1.49-3.04,2.17-.3-.53-.98-.91-1.3-1.3-2.09-2.6-3.95-5.46-6.1-8.03-23.11-27.73-54.22-49.55-88.7-60.68l-50.9,158.28-2.16-.42c17.35-52.81,33.65-106.02,51.31-158.73.39-1.16.87-2.33,1.3-3.48,41.13,13.43,74.1,37.19,99.58,72.19Z"/>
      <path class="cls-9" d="M408.13,134.79c-44.5,32.46-88.91,65.09-133.5,97.41-.48.35-1.21.55-1.74.87-2.04-2.85-8.87-7.78-12.18-9.13,1.74-.86,5.33,1.46,6.92,2.43,1.21.74,5.3,4.31,6.11,3.9l133.08-96.78c.32.4,1.01.78,1.3,1.3Z"/>
      <path class="cls-9" d="M406.82,133.49l-133.08,96.78c-.81.4-4.9-3.17-6.11-3.9-1.59-.97-5.18-3.29-6.92-2.43-.51-.21-1.19-.26-1.74-.43v-.87l2.16.42,50.9-158.28c34.47,11.13,65.58,32.95,88.7,60.68,2.15,2.58,4.01,5.43,6.1,8.03Z"/>
      <path class="cls-10" d="M189.4,63.47c16.96,53.28,34.93,106.27,51.75,159.6-.14.04-1.19.64-1.74.87l-51.76-159.17c-33.33,11.13-63.17,31.58-86.08,58.07-2.49,2.88-5.92,8.42-8.27,10.64-1.62,1.52-3.37.01-3.91-1.74,24.77-33.58,59.25-58.9,99.15-71.75.03,1.23.51,2.34.87,3.48Z"/>
      <path class="cls-17" d="M93.29,133.49l135.24,98.28c-.4.45-.6,1.08-1.3,1.3l-138.28-100.46c.12-.17.2-.55.43-.87.55,1.75,2.3,3.26,3.91,1.74Z"/>
      <path class="cls-10" d="M239.4,223.94c-3.86,1.62-8.11,4.7-10.87,7.83l-135.24-98.28c2.36-2.22,5.79-7.77,8.27-10.64,22.92-26.49,52.75-46.94,86.08-58.07l51.76,159.17Z"/>
      <path class="cls-2" d="M272.45,51.73c.28.03.59-.03.87,0l-.87,3.91c1.21-.08,2.42.68,3.48.87l-16.04,28.87-1.35.27,2.17.87c-.58,0-1.16,0-1.74,0-.43,0-.87-.01-1.3,0-2.73-2.37-4.96-5.8-7.39-8.26,2.02-2.2,6.04-5.04,7.59-7.41,1.7-2.61,2.87-7.07,4.15-9.98,1.41-3.2,3-6.35,4.35-9.57,2.12-.3,4.11.24,6.09.43Z"/>
      <path class="cls-2" d="M233.32,51.29c.49,1.16,1.22,2.68,1.74,3.91-10.22.67-20.39,2.34-30.36,4.64-4.38,1.01-8.88,2.72-13.12,3.62-.78.16-1.38.35-2.17,0-.36-1.14-.84-2.25-.87-3.48,12.73-4.1,25.81-6.91,39.14-8.26,1.84-.19,3.68-.74,5.65-.43Z"/>
      <path class="cls-2" d="M311.59,60.43c-.44,1.15-.92,2.32-1.3,3.48-.68-.3-1.52-.25-2.17-.43-8.1-2.28-16.04-4.56-24.35-6.09-2.44-.45-5.49-.44-7.83-.87-1.06-.19-2.27-.96-3.48-.87l.87-3.91c13.31,1.45,25.62,4.57,38.27,8.7Z"/>
      <path class="cls-2" d="M310.29,63.91c-17.66,52.71-33.96,105.92-51.31,158.73v.87c-1.13-.37-2.82-1.12-3.91-1.3l2.1-.72,50.53-155.61.42-2.4c.65.18,1.5.14,2.17.43Z"/>
      <path class="cls-2" d="M191.57,63.47l51.75,159.17c-.64.14-1.76.3-2.17.43-16.82-53.33-34.79-106.32-51.75-159.6.8.35,1.39.16,2.17,0Z"/>
      <path class="cls-2" d="M235.06,55.21c.97,2.3,2.78,5.3,3.91,7.83,1.06,2.35,1.86,5.7,3.29,7.8,1.9,2.79,5.87,5.25,8.02,7.42,2.43,2.46,4.66,5.89,7.39,8.26-1.72.05-3.54-.27-5.16.5l-.49,12.55c2.95-.65,10.36-2.47,10.77,2.06.54,5.86-7.24,4.04-10.77,3.16l.04,3.87c6.75,1.89,16.38,1.47,15.13-7.96-.72-5.46-6.41-5.85-10.83-5.47v-3.92s.44-.43.44-.43c.21-.32.55-.32.87-.43,1.73-.04,3.49.05,5.22,0,1.01-.03,2.03.02,3.04,0l.43-.43v-3.04l1.1-.4c.54-.65.97-1.37,1.42-2.07,4.4-6.86,10.92-17.56,14.37-24.77.38-.79.64-1.4.5-2.32,8.31,1.53,16.25,3.81,24.35,6.09l-.42,2.4-50.53,155.61-2.1.72c-3.61-.62-8.17-.35-11.74.43l-51.75-159.17c4.24-.89,8.75-2.61,13.12-3.62,9.97-2.3,20.14-3.98,30.36-4.64Z"/>
      <path class="cls-2" d="M283.76,57.38c.14.91-.13,1.53-.5,2.32-3.45,7.21-9.97,17.91-14.37,24.77-.45.71-.88,1.43-1.42,2.07l-1.1.4c-1.55-.78-3.84-.45-5.65-.43l-2.17-.87,1.35-.27,16.04-28.87c2.34.43,5.38.42,7.83.87Z"/>
      <path class="cls-16" d="M258.97,86.52v.43c-.67.13-.85-.04-1.3-.43.43-.01.87,0,1.3,0Z"/>
      <path class="cls-16" d="M256.36,91.3l.43-.43-.43.43Z"/>
      <path class="cls-16" d="M265.93,90.43l.43-.43-.43.43Z"/>
      <path class="cls-8" d="M411.17,132.62c24.86,34.14,38.71,75.44,38.27,117.85h-3.91c-.45-.72-1.65-.43-2.39-.44-53.68-.57-107.44,0-161.12,0h-3.91c0-.14,0-.29,0-.43l167.42-.43c.02-.43-.03-.87,0-1.3.21-2.99-.22-8.37-.44-11.52-2.5-35.52-14.94-70.75-35.92-99.34l-133.23,96.51c-.24-.31-1.18-.6-1.3-1.3,44.59-32.32,89-64.96,133.5-97.41.94-.69,2.25-1.16,3.04-2.17Z"/>
      <path class="cls-8" d="M445.53,247.86h-163.94c-.5-4.76-2.75-10.52-5.66-14.35l133.23-96.51c20.98,28.59,33.43,63.82,35.92,99.34.22,3.15.65,8.53.44,11.52Z"/>
      <path class="cls-8" d="M275.93,233.51c2.9,3.83,5.15,9.59,5.66,14.35h163.94c-.03.43.02.87,0,1.31h-167.42c-.11-3.48-1.32-7.23-2.61-10.44-.5-1.24-1.96-4.75-2.61-5.65.53-.32,1.26-.52,1.74-.87.12.71,1.07.99,1.3,1.3Z"/>
      <path class="cls-8" d="M445.53,249.16l-167.42.43c0-.14,0-.29,0-.43h167.42Z"/>
      <path class="cls-4" d="M449.44,250.47h-167.42v-.43c54.97,0,110.01-.57,164.98,0,.75,0,1.98-.28,2.44.44Z"/>
      <path class="cls-4" d="M227.23,233.07c.19,1.15-1.07,1.75-1.3,2.17l-135.43-98.31c-22.78,32.32-35.57,71.17-35.91,110.92h-3.91c.42-42.66,13.35-81.06,38.27-115.24l138.28,100.46Z"/>
      <path class="cls-4" d="M54.59,247.86h167.42c-.06.71,0,1.46,0,2.17H50.68c0-.72,0-1.45,0-2.17h3.91Z"/>
      <path class="cls-4" d="M225.92,235.25c-.59,1.06-.89,2.91-1.3,3.91-1.32,3.18-2.3,4.8-2.61,8.7H54.59c.33-39.75,13.13-78.61,35.91-110.92l135.43,98.31Z"/>
      <path class="cls-4" d="M181.28,232.93c-1.88-1.94-1.6-4.7-.53-6.98,2.91-6.19,16.43-1.13,11.26,6.91-2.28,3.55-8.23,2.64-10.73.07Z"/>
      <path class="cls-8" d="M222.01,251.77c.16,2.36.87,4.66,1.3,6.96.01.06-.46.32-.27,1.28.29,1.55,2.59,4.71,1.57,5.88l-133.38,96.72c-1.26.18-2.61-2.39-3.35-3.46-11.04-15.96-19.49-34.87-25.06-53.44l-3.9.85c-5.51-18.7-8.07-35.21-8.26-54.79h171.33Z"/>
      <path class="cls-8" d="M224.18,259.6c1.16,2.9,1.5,4.28,3.48,6.96-.83-.17-1.04.7-1.3.87-3.91,2.51-7.68,5.19-11.44,7.91-41.07,29.69-81.66,60.11-122.93,89.51-.91.65-3.01,1.09-3.04,2.61-13.85-19.06-23.33-38.25-30.01-60.88l3.9-.85c5.57,18.57,14.02,37.48,25.06,53.44.74,1.07,2.08,3.65,3.35,3.46l133.38-96.72c1.01-1.17-1.28-4.33-1.57-5.88-.18-.97.29-1.22.27-1.28.21.27.77.61.87.87Z"/>
      <path class="cls-8" d="M222.01,250.03c0,.58-.04,1.17,0,1.74H50.68c0-.58,0-1.16,0-1.74h171.33Z"/>
      <path class="cls-4" d="M282.02,250.03v.43c0,.43,0,.87,0,1.3-.05,2.93-.51,6.09-1.33,8.89-.57,1.93-3.25,6.01-2.18,7.45l131.08,94.59c16.31-23.31,27.79-50.09,32.75-78.23,1.91-10.84,2.65-21.71,3.18-32.7h3.91c-.24,42.05-13.8,81.56-38.27,115.24-.8-1.01-2.1-1.49-3.04-2.17-43.85-31.98-87.61-64.11-131.76-95.67-1.15-.82-2.6-1.93-3.48-3.04,1.28-1.77,2.25-4.04,3.04-6.09,1.21-3.15,2.11-6.61,2.17-10h3.91Z"/>
      <path class="cls-4" d="M445.53,250.47h3.91v1.3h-167.42c0-.43,0-.87,0-1.3h163.51Z"/>
      <path class="cls-4" d="M445.53,251.77c-.53,10.99-1.27,21.85-3.18,32.7-4.96,28.14-16.44,54.92-32.75,78.23l-131.08-94.59c-1.07-1.44,1.61-5.52,2.18-7.45.82-2.8,1.28-5.96,1.33-8.89h163.51Z"/>
      <path class="cls-9" d="M91.99,364.84c.12.7,1.07,1,1.3,1.3,23.86,32.02,56.41,56.81,94.8,68.71.07.02.34.55,1.3.87-.32,1.03-.28,2.76-.87,3.91-40.03-12.74-74.96-38.32-99.58-72.19.04-1.52,2.13-1.96,3.04-2.61Z"/>
      <path class="cls-9" d="M227.66,266.56c3.08,4.17,8.54,8.32,13.48,10-.18.79-.2,1.88-.43,2.61-16.57,52.31-35.25,104.1-51.31,156.56-.97-.32-1.23-.85-1.3-.87l49.9-154.71.02-1.76c-1.6-.95-3.48-1.97-4.91-3.14s-4.83-4.57-5.88-6.08c-.23-.33-.09-1.44-.87-1.74.27-.17.47-1.04,1.3-.87Z"/>
      <path class="cls-10" d="M260.71,275.69l.9,4.51c-.03.13-1.19.68-1.34.71-.14.03-.3-.03-.43,0l-1.3-4.35c.73-.22,1.47-.57,2.17-.87Z"/>
      <path class="cls-9" d="M226.36,267.43c.78.3.64,1.41.87,1.74l-133.94,96.98c-.23-.31-1.19-.6-1.3-1.3,41.26-29.4,81.86-59.82,122.93-89.51,3.76-2.72,7.54-5.39,11.44-7.91Z"/>
      <path class="cls-9" d="M227.23,269.17c1.05,1.5,4.4,4.87,5.88,6.08s3.31,2.19,4.91,3.14l-.02,1.76-49.9,154.71c-38.39-11.9-70.94-36.69-94.8-68.71l133.94-96.98Z"/>
      <path class="cls-2" d="M258.54,276.56l1.3,4.35c-.5.11-1.19-.08-1.74,0l50.02,155.23c.84.24,1.46-.21,2.16-.42.41,1.31.7,2.67,1.3,3.91-.73.23-1.55.24-2.17.43l-1.14-3.51c-32.49,9.94-67.01,11.43-100.27,4.25-5.46-1.18-10.83-2.82-16.23-4.22-1.13-.04-.9,2.81-1.08,3.49-.63-.19-1.44-.2-2.17-.43.59-1.15.55-2.88.87-3.91.75.25,1.8.76,2.39,0,.42-.53,1.6-4.76,1.97-5.87,15.63-47.21,31.52-94.59,46.21-142.09.42-1.37,2.11-6.16,2.09-7.1s-1.09-.72-1.34-1.51c.23-.73.26-1.82.43-2.61,5.44,1.85,11.95,1.68,17.39,0Z"/>
      <path class="cls-2" d="M190.7,440.08c.19-.68-.05-3.53,1.08-3.49,5.4,1.41,10.77,3.04,16.23,4.22,33.26,7.19,67.78,5.69,100.27-4.25l1.14,3.51c-40.3,12.32-78.38,12.3-118.72,0Z"/>
      <path class="cls-2" d="M240.71,279.17c.26.79,1.32.57,1.34,1.51s-1.66,5.73-2.09,7.1c-14.69,47.5-30.58,94.88-46.21,142.09-.37,1.1-1.54,5.33-1.97,5.87-.6.75-1.64.24-2.39,0,16.07-52.45,34.75-104.25,51.31-156.56Z"/>
      <path class="cls-2" d="M259.84,280.91c.14-.03.29.03.43,0,15.91,51.84,33.99,103.02,50.01,154.82-.69.21-1.32.66-2.16.42l-50.02-155.23c.55-.08,1.24.1,1.74,0Z"/>
      <path class="cls-10" d="M411.17,367.02c-24.89,34.27-58.92,59.66-99.58,72.62-.61-1.24-.9-2.6-1.3-3.91.88-.27,1.45-.78,1.74-.87,38.91-12.41,70.31-36.39,94.8-68.71.29-.38,1.02-.78,1.3-1.3.94.69,2.25,1.16,3.04,2.17Z"/>
      <path class="cls-10" d="M276.37,269.17c-.52.36-.65,1.47-.87,1.74-3.28,4.02-8.76,7.41-13.5,9.38l50.03,154.57c-.29.09-.86.6-1.74.87-16.02-51.8-34.1-102.98-50.01-154.82.15-.03,1.3-.58,1.34-.71l-.9-4.51c4.46-1.88,9.34-5.64,12.18-9.57.88,1.11,2.33,2.22,3.48,3.04Z"/>
      <path class="cls-10" d="M408.13,364.84c-.28.52-1.01.92-1.3,1.3l-131.33-95.24c.22-.27.35-1.38.87-1.74,44.15,31.57,87.91,63.69,131.76,95.67Z"/>
      <path class="cls-10" d="M406.82,366.15c-24.49,32.32-55.89,56.3-94.8,68.71l-50.03-154.57c4.74-1.97,10.22-5.36,13.5-9.38l131.33,95.24Z"/>
      <path class="cls-12" d="M231.14,44.77c-.17-.46-1.3-1.76-1.3-2.39v-8.05h40.01v8.91c0,.44-2.98,6.85-3.48,8.05-1.35,3.22-2.94,6.37-4.35,9.57l-1.74-.43c.97-2.21,7.39-16.66,7.39-17.61v-6.31h-35.66c.11,2.63-.5,5.22.88,7.6l-1.75.67Z"/>
      <path class="cls-12" d="M262.02,60.86c-1.28,2.91-2.45,7.38-4.15,9.98-1.55,2.37-5.57,5.21-7.59,7.41-2.15-2.17-6.12-4.64-8.02-7.42-1.43-2.1-2.23-5.45-3.29-7.8,2.76-1.54,3.66,4.54,5.03,6.5.57.82,5.5,5.74,6,5.65,1.79-1.6,4.84-3.66,6.13-5.64s3.1-6.74,4.15-9.11l1.74.43Z"/>
      <path class="cls-12" d="M231.14,44.77l1.75-.67c-1.38-2.37-.77-4.96-.88-7.6h35.66v6.31c0,.96-6.42,15.41-7.39,17.61-1.05,2.37-2.91,7.22-4.15,9.11s-4.34,4.04-6.13,5.64c-.5.09-5.42-4.83-6-5.65-1.37-1.95-2.27-8.03-5.03-6.5-1.13-2.52-2.94-5.53-3.91-7.83-.52-1.23-1.25-2.75-1.74-3.91-.75-1.8-1.45-4.57-2.17-6.52ZM261.15,42.6h-22.18c-.08.48.06.87.2,1.32,1.48,4.65,6.88,17.48,9.28,21.6.95,1.63,2,2.16,3.02.24l9.67-23.16Z"/>
      <path class="cls-3" d="M261.15,42.6l-9.67,23.16c-1.02,1.92-2.08,1.39-3.02-.24-2.4-4.12-7.8-16.94-9.28-21.6-.14-.45-.28-.84-.2-1.32h22.18Z"/>
      <rect class="cls-2" x="244.41" y="86.52" width="26.76" height="25.66" transform="translate(-6.25 18.07) rotate(-3.97)"/>
    </g>
  </g>
</svg>